<?xml version="1.0" encoding="utf-8"?>
<!-- Generator: Adobe Illustrator 17.1.0, SVG Export Plug-In . SVG Version: 6.00 Build 0)  -->
<!DOCTYPE svg PUBLIC "-//W3C//DTD SVG 1.1//EN" "http://www.w3.org/Graphics/SVG/1.1/DTD/svg11.dtd">
<svg version="1.1" id="Layer_1" xmlns="http://www.w3.org/2000/svg" xmlns:xlink="http://www.w3.org/1999/xlink" x="0px" y="0px"
	 width="74px" height="79px" viewBox="0 0 74 79" enable-background="new 0 0 74 79" xml:space="preserve">
<g>
	<path fill="#050505" d="M40.429,45.092c-0.037-0.036-0.08-0.069-0.125-0.099c-0.213-0.173-0.485-0.301-0.81-0.379
		c-0.526-0.129-1.029-0.076-1.586,0.224l-1.217,0.758c-0.061-0.036-0.193-0.125-0.429-0.327c-0.245-0.21-0.553-0.534-0.916-0.961
		c-0.359-0.423-0.763-1.009-1.208-1.758c-0.45-0.72-0.784-1.342-0.992-1.847c-0.208-0.509-0.352-0.929-0.428-1.259
		c-0.05-0.205-0.083-0.39-0.099-0.551l1.001-0.611c0.362-0.221,0.641-0.534,0.83-0.93c0.205-0.43,0.246-0.892,0.127-1.313
		l-1.202-4.744c-0.092-0.269-0.228-0.514-0.405-0.729c-0.228-0.275-0.535-0.466-0.889-0.552c-0.465-0.114-0.938-0.033-1.365,0.229
		l-3.338,2.038c-0.263,0.143-0.504,0.346-0.716,0.604c-0.197,0.24-0.352,0.497-0.458,0.762c-0.013,0.031-0.026,0.075-0.035,0.107
		c-0.011,0.042-0.048,0.164-0.109,0.366c-0.092,0.302-0.156,0.698-0.197,1.209c-0.04,0.493-0.035,1.068,0.017,1.758
		c0.051,0.685,0.186,1.47,0.401,2.333c0.215,0.861,0.543,1.825,0.976,2.867c0.435,1.049,1.034,2.191,1.774,3.384
		c0.932,1.547,1.877,2.834,2.808,3.826c0.926,0.985,1.797,1.778,2.591,2.358c0.817,0.597,1.52,1.012,2.146,1.268
		c0.601,0.247,1.041,0.403,1.347,0.478c0.145,0.035,0.264,0.058,0.387,0.072c0.041,0.01,0.083,0.017,0.125,0.021
		c0.083,0.008,0.167,0.012,0.254,0.012c0.206,0,0.419-0.024,0.633-0.07c0.328-0.07,0.619-0.191,0.826-0.335l3.374-2.041
		c0.516-0.314,0.823-0.792,0.891-1.44c0.015-0.363-0.077-0.906-0.604-1.441L40.429,45.092z M42.641,49.806l-3.411,2.065
		c-0.064,0.043-0.153,0.078-0.265,0.102c-0.097,0.021-0.19,0.032-0.274,0.032l-0.074-0.003c-0.031-0.005-0.068-0.011-0.111-0.017
		c-0.047-0.006-0.106-0.02-0.179-0.037c-0.15-0.037-0.463-0.135-1.104-0.398c-0.491-0.201-1.093-0.561-1.788-1.068
		c-0.708-0.518-1.5-1.24-2.354-2.149c-0.85-0.904-1.721-2.095-2.597-3.548c-0.697-1.125-1.254-2.185-1.654-3.149
		c-0.4-0.964-0.702-1.848-0.896-2.627c-0.192-0.77-0.312-1.458-0.355-2.047c-0.044-0.593-0.05-1.096-0.018-1.496
		c0.039-0.479,0.091-0.728,0.13-0.854c0.05-0.167,0.086-0.289,0.108-0.365c0.042-0.093,0.102-0.188,0.18-0.283
		c0.072-0.087,0.143-0.15,0.25-0.209l3.433-2.106c0.046,0.057,0.082,0.121,0.088,0.131l1.188,4.7c0.01,0.035,0.015,0.07-0.02,0.144
		c-0.046,0.097-0.103,0.162-0.182,0.21l-1.246,0.76c-0.149,0.091-0.273,0.218-0.38,0.389c-0.085,0.137-0.143,0.268-0.174,0.4
		c-0.012,0.051-0.02,0.103-0.022,0.155c-0.019,0.385,0.032,0.815,0.151,1.302c0.095,0.414,0.262,0.908,0.509,1.511
		c0.244,0.594,0.622,1.302,1.113,2.087c0.491,0.825,0.937,1.471,1.364,1.973c0.426,0.502,0.788,0.878,1.104,1.151
		c0.349,0.299,0.622,0.489,0.858,0.599l0.243,0.113c0.052,0.024,0.107,0.043,0.163,0.057c0.08,0.019,0.164,0.028,0.257,0.028
		c0.025,0,0.129-0.004,0.154-0.007c0.202-0.018,0.372-0.071,0.525-0.165l1.401-0.874c0.117-0.062,0.215-0.073,0.339-0.044
		c0.09,0.021,0.131,0.041,0.128,0.039c0.03,0.029,0.063,0.056,0.099,0.081l3.291,3.197c0.041,0.042,0.111,0.11,0.107,0.11
		C42.715,49.74,42.713,49.762,42.641,49.806z"/>
	<path fill="#050505" d="M43.469,31.63c-0.543,0-1.081,0.07-1.609,0.177l1.572-1.823c0.325-0.376,0.283-0.945-0.094-1.27
		c-0.377-0.324-0.946-0.282-1.27,0.094l-3.839,4.454l4.828,3.741c0.164,0.127,0.358,0.188,0.551,0.188
		c0.269,0,0.535-0.12,0.712-0.349c0.304-0.393,0.233-0.958-0.16-1.263l-2.441-1.891c0.567-0.165,1.156-0.259,1.751-0.259
		c3.456,0,6.267,2.811,6.267,6.267c0,2.245-1.213,4.333-3.166,5.447c-0.432,0.247-0.582,0.796-0.335,1.228
		c0.166,0.291,0.47,0.454,0.783,0.454c0.151,0,0.304-0.039,0.445-0.119c2.512-1.434,4.073-4.12,4.073-7.01
		C51.536,35.249,47.917,31.63,43.469,31.63z"/>
</g>
</svg>
